<mxfile host="65bd71144e">
    <diagram id="Trdfxok5Aq1pw58_UTrk" name="Page-1">
        <mxGraphModel dx="784" dy="573" grid="1" gridSize="10" guides="1" tooltips="1" connect="1" arrows="1" fold="1" page="1" pageScale="1" pageWidth="827" pageHeight="1169" math="0" shadow="0">
            <root>
                <mxCell id="0"/>
                <mxCell id="1" parent="0"/>
                <mxCell id="5akjp0fPnfC4H997W78s-1" value="Student" style="rounded=0;whiteSpace=wrap;html=1;" parent="1" vertex="1">
                    <mxGeometry x="80" y="40" width="120" height="60" as="geometry"/>
                </mxCell>
                <mxCell id="5akjp0fPnfC4H997W78s-2" value="Exercise" style="rounded=0;whiteSpace=wrap;html=1;" parent="1" vertex="1">
                    <mxGeometry x="480" y="40" width="120" height="60" as="geometry"/>
                </mxCell>
                <mxCell id="5akjp0fPnfC4H997W78s-3" value="Approval" style="rhombus;whiteSpace=wrap;html=1;" parent="1" vertex="1">
                    <mxGeometry x="300" y="30" width="80" height="80" as="geometry"/>
                </mxCell>
                <mxCell id="5akjp0fPnfC4H997W78s-4" value="" style="endArrow=none;html=1;rounded=0;exitX=1;exitY=0.5;exitDx=0;exitDy=0;entryX=0;entryY=0.5;entryDx=0;entryDy=0;" parent="1" source="5akjp0fPnfC4H997W78s-1" target="5akjp0fPnfC4H997W78s-3" edge="1">
                    <mxGeometry width="50" height="50" relative="1" as="geometry">
                        <mxPoint x="190" y="140" as="sourcePoint"/>
                        <mxPoint x="240" y="90" as="targetPoint"/>
                    </mxGeometry>
                </mxCell>
                <mxCell id="5akjp0fPnfC4H997W78s-5" value="" style="endArrow=none;html=1;rounded=0;exitX=1;exitY=0.5;exitDx=0;exitDy=0;entryX=0;entryY=0.5;entryDx=0;entryDy=0;" parent="1" source="5akjp0fPnfC4H997W78s-3" target="5akjp0fPnfC4H997W78s-2" edge="1">
                    <mxGeometry width="50" height="50" relative="1" as="geometry">
                        <mxPoint x="330" y="110" as="sourcePoint"/>
                        <mxPoint x="380" y="60" as="targetPoint"/>
                    </mxGeometry>
                </mxCell>
                <mxCell id="5akjp0fPnfC4H997W78s-25" value="Student" style="rounded=0;whiteSpace=wrap;html=1;" parent="1" vertex="1">
                    <mxGeometry x="80" y="160" width="120" height="60" as="geometry"/>
                </mxCell>
                <mxCell id="5akjp0fPnfC4H997W78s-26" value="Subject" style="rounded=0;whiteSpace=wrap;html=1;" parent="1" vertex="1">
                    <mxGeometry x="480" y="160" width="120" height="60" as="geometry"/>
                </mxCell>
                <mxCell id="5akjp0fPnfC4H997W78s-27" value="Participates in" style="rhombus;whiteSpace=wrap;html=1;" parent="1" vertex="1">
                    <mxGeometry x="300" y="150" width="80" height="80" as="geometry"/>
                </mxCell>
                <mxCell id="5akjp0fPnfC4H997W78s-28" value="" style="endArrow=none;html=1;rounded=0;exitX=1;exitY=0.5;exitDx=0;exitDy=0;entryX=0;entryY=0.5;entryDx=0;entryDy=0;" parent="1" source="5akjp0fPnfC4H997W78s-25" target="5akjp0fPnfC4H997W78s-27" edge="1">
                    <mxGeometry width="50" height="50" relative="1" as="geometry">
                        <mxPoint x="190" y="260" as="sourcePoint"/>
                        <mxPoint x="240" y="210" as="targetPoint"/>
                    </mxGeometry>
                </mxCell>
                <mxCell id="5akjp0fPnfC4H997W78s-29" value="" style="endArrow=none;html=1;rounded=0;exitX=1;exitY=0.5;exitDx=0;exitDy=0;entryX=0;entryY=0.5;entryDx=0;entryDy=0;" parent="1" source="5akjp0fPnfC4H997W78s-27" target="5akjp0fPnfC4H997W78s-26" edge="1">
                    <mxGeometry width="50" height="50" relative="1" as="geometry">
                        <mxPoint x="330" y="230" as="sourcePoint"/>
                        <mxPoint x="380" y="180" as="targetPoint"/>
                    </mxGeometry>
                </mxCell>
                <mxCell id="5akjp0fPnfC4H997W78s-30" value="Exercise" style="rounded=0;whiteSpace=wrap;html=1;" parent="1" vertex="1">
                    <mxGeometry x="80" y="290" width="120" height="60" as="geometry"/>
                </mxCell>
                <mxCell id="5akjp0fPnfC4H997W78s-31" value="Subject" style="rounded=0;whiteSpace=wrap;html=1;" parent="1" vertex="1">
                    <mxGeometry x="480" y="290" width="120" height="60" as="geometry"/>
                </mxCell>
                <mxCell id="5akjp0fPnfC4H997W78s-32" value="is part of" style="rhombus;whiteSpace=wrap;html=1;" parent="1" vertex="1">
                    <mxGeometry x="300" y="280" width="80" height="80" as="geometry"/>
                </mxCell>
                <mxCell id="5akjp0fPnfC4H997W78s-33" value="" style="endArrow=none;html=1;rounded=0;exitX=1;exitY=0.5;exitDx=0;exitDy=0;entryX=0;entryY=0.5;entryDx=0;entryDy=0;" parent="1" target="5akjp0fPnfC4H997W78s-32" edge="1">
                    <mxGeometry width="50" height="50" relative="1" as="geometry">
                        <mxPoint x="200" y="320" as="sourcePoint"/>
                        <mxPoint x="250" y="340" as="targetPoint"/>
                    </mxGeometry>
                </mxCell>
                <mxCell id="5akjp0fPnfC4H997W78s-34" value="" style="endArrow=none;html=1;rounded=0;exitX=1;exitY=0.5;exitDx=0;exitDy=0;entryX=0;entryY=0.5;entryDx=0;entryDy=0;" parent="1" source="5akjp0fPnfC4H997W78s-32" edge="1">
                    <mxGeometry width="50" height="50" relative="1" as="geometry">
                        <mxPoint x="340" y="360" as="sourcePoint"/>
                        <mxPoint x="480" y="320" as="targetPoint"/>
                    </mxGeometry>
                </mxCell>
                <mxCell id="5akjp0fPnfC4H997W78s-36" value="M" style="text;html=1;resizable=0;autosize=1;align=center;verticalAlign=middle;points=[];fillColor=none;strokeColor=none;rounded=0;" parent="1" vertex="1">
                    <mxGeometry x="720" y="40" width="20" height="20" as="geometry"/>
                </mxCell>
                <mxCell id="5akjp0fPnfC4H997W78s-37" value="1" style="text;html=1;resizable=0;autosize=1;align=center;verticalAlign=middle;points=[];fillColor=none;strokeColor=none;rounded=0;" parent="1" vertex="1">
                    <mxGeometry x="720" y="80" width="20" height="20" as="geometry"/>
                </mxCell>
                <mxCell id="5akjp0fPnfC4H997W78s-40" value="M" style="text;html=1;resizable=0;autosize=1;align=center;verticalAlign=middle;points=[];fillColor=none;strokeColor=none;rounded=0;" parent="1" vertex="1">
                    <mxGeometry x="460" y="50" width="20" height="20" as="geometry"/>
                </mxCell>
                <mxCell id="5akjp0fPnfC4H997W78s-41" value="M" style="text;html=1;resizable=0;autosize=1;align=center;verticalAlign=middle;points=[];fillColor=none;strokeColor=none;rounded=0;" parent="1" vertex="1">
                    <mxGeometry x="200" y="50" width="20" height="20" as="geometry"/>
                </mxCell>
                <mxCell id="5akjp0fPnfC4H997W78s-42" value="M" style="text;html=1;resizable=0;autosize=1;align=center;verticalAlign=middle;points=[];fillColor=none;strokeColor=none;rounded=0;" parent="1" vertex="1">
                    <mxGeometry x="460" y="170" width="20" height="20" as="geometry"/>
                </mxCell>
                <mxCell id="5akjp0fPnfC4H997W78s-43" value="M" style="text;html=1;resizable=0;autosize=1;align=center;verticalAlign=middle;points=[];fillColor=none;strokeColor=none;rounded=0;" parent="1" vertex="1">
                    <mxGeometry x="200" y="170" width="20" height="20" as="geometry"/>
                </mxCell>
                <mxCell id="5akjp0fPnfC4H997W78s-44" value="M" style="text;html=1;resizable=0;autosize=1;align=center;verticalAlign=middle;points=[];fillColor=none;strokeColor=none;rounded=0;" parent="1" vertex="1">
                    <mxGeometry x="200" y="300" width="20" height="20" as="geometry"/>
                </mxCell>
                <mxCell id="5akjp0fPnfC4H997W78s-45" value="M" style="text;html=1;resizable=0;autosize=1;align=center;verticalAlign=middle;points=[];fillColor=none;strokeColor=none;rounded=0;" parent="1" vertex="1">
                    <mxGeometry x="460" y="300" width="20" height="20" as="geometry"/>
                </mxCell>
                <mxCell id="5akjp0fPnfC4H997W78s-49" value="Approval" style="rhombus;whiteSpace=wrap;html=1;" parent="1" vertex="1">
                    <mxGeometry x="170" y="610" width="120" height="80" as="geometry"/>
                </mxCell>
                <mxCell id="5akjp0fPnfC4H997W78s-50" value="" style="endArrow=none;html=1;rounded=0;exitX=0.5;exitY=1;exitDx=0;exitDy=0;entryX=0.5;entryY=0;entryDx=0;entryDy=0;" parent="1" source="5akjp0fPnfC4H997W78s-75" target="5akjp0fPnfC4H997W78s-49" edge="1">
                    <mxGeometry width="50" height="50" relative="1" as="geometry">
                        <mxPoint x="200" y="510" as="sourcePoint"/>
                        <mxPoint x="140" y="700" as="targetPoint"/>
                    </mxGeometry>
                </mxCell>
                <mxCell id="5akjp0fPnfC4H997W78s-51" value="" style="endArrow=none;html=1;rounded=0;exitX=0.5;exitY=1;exitDx=0;exitDy=0;entryX=0.5;entryY=0;entryDx=0;entryDy=0;" parent="1" source="5akjp0fPnfC4H997W78s-49" target="5akjp0fPnfC4H997W78s-69" edge="1">
                    <mxGeometry width="50" height="50" relative="1" as="geometry">
                        <mxPoint x="230" y="720" as="sourcePoint"/>
                        <mxPoint x="370" y="750" as="targetPoint"/>
                    </mxGeometry>
                </mxCell>
                <mxCell id="5akjp0fPnfC4H997W78s-55" value="Participates in" style="rhombus;whiteSpace=wrap;html=1;" parent="1" vertex="1">
                    <mxGeometry x="390" y="470" width="80" height="80" as="geometry"/>
                </mxCell>
                <mxCell id="5akjp0fPnfC4H997W78s-56" value="" style="endArrow=none;html=1;rounded=0;exitX=1;exitY=0.5;exitDx=0;exitDy=0;entryX=0;entryY=0.5;entryDx=0;entryDy=0;" parent="1" source="5akjp0fPnfC4H997W78s-55" edge="1">
                    <mxGeometry width="50" height="50" relative="1" as="geometry">
                        <mxPoint x="444" y="600" as="sourcePoint"/>
                        <mxPoint x="594" y="560" as="targetPoint"/>
                    </mxGeometry>
                </mxCell>
                <mxCell id="5akjp0fPnfC4H997W78s-58" value="" style="endArrow=none;html=1;rounded=0;exitX=1;exitY=0.5;exitDx=0;exitDy=0;entryX=0;entryY=0.5;entryDx=0;entryDy=0;" parent="1" source="5akjp0fPnfC4H997W78s-75" target="5akjp0fPnfC4H997W78s-55" edge="1">
                    <mxGeometry width="50" height="50" relative="1" as="geometry">
                        <mxPoint x="260" y="480" as="sourcePoint"/>
                        <mxPoint x="410" y="560" as="targetPoint"/>
                    </mxGeometry>
                </mxCell>
                <mxCell id="5akjp0fPnfC4H997W78s-59" value="is part of" style="rhombus;whiteSpace=wrap;html=1;" parent="1" vertex="1">
                    <mxGeometry x="390" y="630" width="80" height="80" as="geometry"/>
                </mxCell>
                <mxCell id="5akjp0fPnfC4H997W78s-60" value="" style="endArrow=none;html=1;rounded=0;exitX=1;exitY=0;exitDx=0;exitDy=0;entryX=0.5;entryY=1;entryDx=0;entryDy=0;" parent="1" source="5akjp0fPnfC4H997W78s-69" target="5akjp0fPnfC4H997W78s-59" edge="1">
                    <mxGeometry width="50" height="50" relative="1" as="geometry">
                        <mxPoint x="490" y="750" as="sourcePoint"/>
                        <mxPoint x="580" y="730" as="targetPoint"/>
                    </mxGeometry>
                </mxCell>
                <mxCell id="5akjp0fPnfC4H997W78s-61" value="" style="endArrow=none;html=1;rounded=0;exitX=1;exitY=0;exitDx=0;exitDy=0;entryX=0;entryY=0.75;entryDx=0;entryDy=0;" parent="1" source="5akjp0fPnfC4H997W78s-59" edge="1" target="5akjp0fPnfC4H997W78s-83">
                    <mxGeometry width="50" height="50" relative="1" as="geometry">
                        <mxPoint x="670" y="750" as="sourcePoint"/>
                        <mxPoint x="654" y="590" as="targetPoint"/>
                    </mxGeometry>
                </mxCell>
                <mxCell id="5akjp0fPnfC4H997W78s-64" value="Title" style="ellipse;whiteSpace=wrap;html=1;" parent="1" vertex="1">
                    <mxGeometry x="150" y="790" width="80" height="50" as="geometry"/>
                </mxCell>
                <mxCell id="5akjp0fPnfC4H997W78s-65" value="&lt;u&gt;PracticeNo&lt;/u&gt;" style="ellipse;whiteSpace=wrap;html=1;" parent="1" vertex="1">
                    <mxGeometry x="120" y="725" width="80" height="50" as="geometry"/>
                </mxCell>
                <mxCell id="5akjp0fPnfC4H997W78s-66" value="&lt;div&gt;Assignment&lt;/div&gt;&lt;div&gt;Text&lt;/div&gt;" style="ellipse;whiteSpace=wrap;html=1;" parent="1" vertex="1">
                    <mxGeometry x="150" y="865" width="120" height="50" as="geometry"/>
                </mxCell>
                <mxCell id="5akjp0fPnfC4H997W78s-67" value="&lt;div&gt;Submission&lt;/div&gt;&lt;div&gt;Deadline&lt;/div&gt;" style="ellipse;whiteSpace=wrap;html=1;" parent="1" vertex="1">
                    <mxGeometry x="390" y="880" width="80" height="50" as="geometry"/>
                </mxCell>
                <mxCell id="5akjp0fPnfC4H997W78s-68" value="&lt;div&gt;Solution&lt;/div&gt;&lt;div&gt;Proposal&lt;br&gt;&lt;/div&gt;" style="ellipse;whiteSpace=wrap;html=1;" parent="1" vertex="1">
                    <mxGeometry x="280" y="890" width="86" height="40" as="geometry"/>
                </mxCell>
                <mxCell id="5akjp0fPnfC4H997W78s-69" value="Exercise" style="rounded=0;whiteSpace=wrap;html=1;" parent="1" vertex="1">
                    <mxGeometry x="260" y="790" width="120" height="60" as="geometry"/>
                </mxCell>
                <mxCell id="5akjp0fPnfC4H997W78s-70" value="" style="endArrow=none;html=1;rounded=0;entryX=0.25;entryY=0;entryDx=0;entryDy=0;exitX=1.025;exitY=0.66;exitDx=0;exitDy=0;exitPerimeter=0;" parent="1" source="5akjp0fPnfC4H997W78s-65" target="5akjp0fPnfC4H997W78s-69" edge="1">
                    <mxGeometry width="50" height="50" relative="1" as="geometry">
                        <mxPoint x="250" y="780" as="sourcePoint"/>
                        <mxPoint x="300" y="730" as="targetPoint"/>
                    </mxGeometry>
                </mxCell>
                <mxCell id="5akjp0fPnfC4H997W78s-71" value="" style="endArrow=none;html=1;rounded=0;entryX=0;entryY=0.25;entryDx=0;entryDy=0;exitX=1;exitY=0.5;exitDx=0;exitDy=0;" parent="1" source="5akjp0fPnfC4H997W78s-64" target="5akjp0fPnfC4H997W78s-69" edge="1">
                    <mxGeometry width="50" height="50" relative="1" as="geometry">
                        <mxPoint x="292" y="763" as="sourcePoint"/>
                        <mxPoint x="350" y="790" as="targetPoint"/>
                    </mxGeometry>
                </mxCell>
                <mxCell id="5akjp0fPnfC4H997W78s-72" value="" style="endArrow=none;html=1;rounded=0;entryX=0;entryY=1;entryDx=0;entryDy=0;" parent="1" source="5akjp0fPnfC4H997W78s-66" target="5akjp0fPnfC4H997W78s-69" edge="1">
                    <mxGeometry width="50" height="50" relative="1" as="geometry">
                        <mxPoint x="230" y="990" as="sourcePoint"/>
                        <mxPoint x="280" y="940" as="targetPoint"/>
                    </mxGeometry>
                </mxCell>
                <mxCell id="5akjp0fPnfC4H997W78s-73" value="" style="endArrow=none;html=1;rounded=0;entryX=0.5;entryY=1;entryDx=0;entryDy=0;exitX=0.5;exitY=0;exitDx=0;exitDy=0;" parent="1" source="5akjp0fPnfC4H997W78s-68" target="5akjp0fPnfC4H997W78s-69" edge="1">
                    <mxGeometry width="50" height="50" relative="1" as="geometry">
                        <mxPoint x="290" y="980" as="sourcePoint"/>
                        <mxPoint x="340" y="930" as="targetPoint"/>
                    </mxGeometry>
                </mxCell>
                <mxCell id="5akjp0fPnfC4H997W78s-74" value="" style="endArrow=none;html=1;rounded=0;exitX=1;exitY=0.75;exitDx=0;exitDy=0;" parent="1" source="5akjp0fPnfC4H997W78s-69" target="5akjp0fPnfC4H997W78s-67" edge="1">
                    <mxGeometry width="50" height="50" relative="1" as="geometry">
                        <mxPoint x="480" y="850" as="sourcePoint"/>
                        <mxPoint x="530" y="800" as="targetPoint"/>
                    </mxGeometry>
                </mxCell>
                <mxCell id="5akjp0fPnfC4H997W78s-75" value="Student" style="rounded=0;whiteSpace=wrap;html=1;" parent="1" vertex="1">
                    <mxGeometry x="170" y="480" width="120" height="60" as="geometry"/>
                </mxCell>
                <mxCell id="5akjp0fPnfC4H997W78s-76" value="Email" style="ellipse;whiteSpace=wrap;html=1;" parent="1" vertex="1">
                    <mxGeometry x="183" y="410" width="60" height="40" as="geometry"/>
                </mxCell>
                <mxCell id="5akjp0fPnfC4H997W78s-77" value="Name" style="ellipse;whiteSpace=wrap;html=1;" parent="1" vertex="1">
                    <mxGeometry x="100" y="425" width="60" height="40" as="geometry"/>
                </mxCell>
                <mxCell id="5akjp0fPnfC4H997W78s-78" value="&lt;div&gt;&lt;u&gt;StudentNo&lt;/u&gt;&lt;/div&gt;" style="ellipse;whiteSpace=wrap;html=1;" parent="1" vertex="1">
                    <mxGeometry x="40" y="480" width="90" height="50" as="geometry"/>
                </mxCell>
                <mxCell id="5akjp0fPnfC4H997W78s-79" value="" style="endArrow=none;html=1;rounded=0;exitX=0.5;exitY=1;exitDx=0;exitDy=0;entryX=0.25;entryY=0;entryDx=0;entryDy=0;" parent="1" source="5akjp0fPnfC4H997W78s-76" target="5akjp0fPnfC4H997W78s-75" edge="1">
                    <mxGeometry width="50" height="50" relative="1" as="geometry">
                        <mxPoint x="210" y="490" as="sourcePoint"/>
                        <mxPoint x="260" y="440" as="targetPoint"/>
                    </mxGeometry>
                </mxCell>
                <mxCell id="5akjp0fPnfC4H997W78s-80" value="" style="endArrow=none;html=1;rounded=0;exitX=1;exitY=1;exitDx=0;exitDy=0;entryX=0;entryY=0.25;entryDx=0;entryDy=0;" parent="1" source="5akjp0fPnfC4H997W78s-77" target="5akjp0fPnfC4H997W78s-75" edge="1">
                    <mxGeometry width="50" height="50" relative="1" as="geometry">
                        <mxPoint x="320" y="480" as="sourcePoint"/>
                        <mxPoint x="370" y="430" as="targetPoint"/>
                    </mxGeometry>
                </mxCell>
                <mxCell id="5akjp0fPnfC4H997W78s-81" value="" style="endArrow=none;html=1;rounded=0;exitX=1;exitY=0.5;exitDx=0;exitDy=0;entryX=0;entryY=0.75;entryDx=0;entryDy=0;" parent="1" source="5akjp0fPnfC4H997W78s-78" target="5akjp0fPnfC4H997W78s-75" edge="1">
                    <mxGeometry width="50" height="50" relative="1" as="geometry">
                        <mxPoint x="110" y="560" as="sourcePoint"/>
                        <mxPoint x="160" y="510" as="targetPoint"/>
                    </mxGeometry>
                </mxCell>
                <mxCell id="5akjp0fPnfC4H997W78s-82" value="Name" style="ellipse;whiteSpace=wrap;html=1;" parent="1" vertex="1">
                    <mxGeometry x="744" y="510" width="60" height="40" as="geometry"/>
                </mxCell>
                <mxCell id="5akjp0fPnfC4H997W78s-83" value="Subject" style="rounded=0;whiteSpace=wrap;html=1;" parent="1" vertex="1">
                    <mxGeometry x="594" y="525" width="120" height="60" as="geometry"/>
                </mxCell>
                <mxCell id="5akjp0fPnfC4H997W78s-84" value="" style="endArrow=none;html=1;rounded=0;entryX=0;entryY=0.5;entryDx=0;entryDy=0;exitX=1;exitY=0.5;exitDx=0;exitDy=0;" parent="1" source="5akjp0fPnfC4H997W78s-83" target="5akjp0fPnfC4H997W78s-82" edge="1">
                    <mxGeometry width="50" height="50" relative="1" as="geometry">
                        <mxPoint x="714" y="590" as="sourcePoint"/>
                        <mxPoint x="764" y="540" as="targetPoint"/>
                    </mxGeometry>
                </mxCell>
                <mxCell id="5akjp0fPnfC4H997W78s-85" value="&lt;div&gt;&lt;u&gt;SubjectNo&lt;/u&gt;&lt;/div&gt;" style="ellipse;whiteSpace=wrap;html=1;" parent="1" vertex="1">
                    <mxGeometry x="744" y="570" width="90" height="50" as="geometry"/>
                </mxCell>
                <mxCell id="5akjp0fPnfC4H997W78s-86" value="" style="endArrow=none;html=1;rounded=0;entryX=0;entryY=0.5;entryDx=0;entryDy=0;exitX=1;exitY=0.75;exitDx=0;exitDy=0;" parent="1" source="5akjp0fPnfC4H997W78s-83" target="5akjp0fPnfC4H997W78s-85" edge="1">
                    <mxGeometry width="50" height="50" relative="1" as="geometry">
                        <mxPoint x="604" y="630" as="sourcePoint"/>
                        <mxPoint x="654" y="580" as="targetPoint"/>
                    </mxGeometry>
                </mxCell>
                <mxCell id="5akjp0fPnfC4H997W78s-87" value="Date" style="ellipse;whiteSpace=wrap;html=1;" parent="1" vertex="1">
                    <mxGeometry x="40" y="630" width="80" height="40" as="geometry"/>
                </mxCell>
                <mxCell id="5akjp0fPnfC4H997W78s-88" value="" style="endArrow=none;html=1;rounded=0;entryX=0;entryY=0.5;entryDx=0;entryDy=0;exitX=1;exitY=0.5;exitDx=0;exitDy=0;" parent="1" source="5akjp0fPnfC4H997W78s-87" edge="1">
                    <mxGeometry width="50" height="50" relative="1" as="geometry">
                        <mxPoint x="130" y="740" as="sourcePoint"/>
                        <mxPoint x="170" y="650" as="targetPoint"/>
                    </mxGeometry>
                </mxCell>
                <mxCell id="4" value="" style="edgeStyle=none;html=1;" edge="1" parent="1" source="2" target="3">
                    <mxGeometry relative="1" as="geometry"/>
                </mxCell>
                <mxCell id="6" value="" style="edgeStyle=none;html=1;" edge="1" parent="1" source="2" target="5">
                    <mxGeometry relative="1" as="geometry"/>
                </mxCell>
                <mxCell id="8" value="" style="edgeStyle=none;html=1;" edge="1" parent="1" source="2" target="7">
                    <mxGeometry relative="1" as="geometry"/>
                </mxCell>
                <mxCell id="9" value="" style="edgeStyle=none;html=1;" edge="1" parent="1" source="2" target="7">
                    <mxGeometry relative="1" as="geometry"/>
                </mxCell>
                <mxCell id="10" value="" style="edgeStyle=none;html=1;" edge="1" parent="1" source="2" target="7">
                    <mxGeometry relative="1" as="geometry"/>
                </mxCell>
                <mxCell id="12" value="" style="edgeStyle=none;html=1;" edge="1" parent="1" source="2" target="11">
                    <mxGeometry relative="1" as="geometry"/>
                </mxCell>
                <mxCell id="2" value="Teaching assistant" style="rounded=0;whiteSpace=wrap;html=1;" vertex="1" parent="1">
                    <mxGeometry x="565" y="720" width="120" height="60" as="geometry"/>
                </mxCell>
                <mxCell id="3" value="&lt;u&gt;Employee id&lt;/u&gt;" style="ellipse;whiteSpace=wrap;html=1;rounded=0;" vertex="1" parent="1">
                    <mxGeometry x="710" y="700" width="90" height="50" as="geometry"/>
                </mxCell>
                <mxCell id="5" value="name" style="ellipse;whiteSpace=wrap;html=1;rounded=0;" vertex="1" parent="1">
                    <mxGeometry x="660" y="810" width="80" height="40" as="geometry"/>
                </mxCell>
                <mxCell id="7" value="Email" style="ellipse;whiteSpace=wrap;html=1;rounded=0;" vertex="1" parent="1">
                    <mxGeometry x="580" y="870" width="90" height="40" as="geometry"/>
                </mxCell>
                <mxCell id="11" value="phone nmbr" style="ellipse;whiteSpace=wrap;html=1;rounded=0;" vertex="1" parent="1">
                    <mxGeometry x="490" y="800" width="90" height="50" as="geometry"/>
                </mxCell>
            </root>
        </mxGraphModel>
    </diagram>
</mxfile>